# xmcd CD database file
#
# Track frame offsets:
#	150
#	19507
#	37077
#	58292
#	82365
#	103410
#	122720
#	147050
#	168412
#	187480
#	207847
#	234735
#	254605
#	273110
#	299457
#
# Disc length: 4446 seconds
#
# Revision: 13
# Processed by: cddbd v1.5.2PL0 Copyright (c) Steve Scherf et al.
# Submitted via: CDex 1.70beta2
#
DISCID=f2115c0f
DTITLE=TWO-MIX Single Collection - TWO-MIX Single Collection - SUPER BEST FILES 1995-1998
DYEAR=2008
DGENRE=Salsa
TTITLE0=Just Communication
TTITLE1=Rhythm Emotion
TTITLE2=White Sailing
TTITLE3=T.R.Y~Return To Tourself
TTITLE4=Love Revolution
TTITLE5=Rhythm Generation
TTITLE6=Maximum
TTITLE7=White Reflection
TTITLE8=True Navigation
TTITLE9=Summer Planet No.1
TTITLE10=Living Daylights
TTITLE11=Time Distortion
TTITLE12=Graduation
TTITLE13=Beat Of Destiny
TTITLE14=Last Impression
EXTD=YEAR: 2008
EXTT0=
EXTT1=
EXTT2=
EXTT3=
EXTT4=
EXTT5=
EXTT6=
EXTT7=
EXTT8=
EXTT9=
EXTT10=
EXTT11=
EXTT12=
EXTT13=
EXTT14=
PLAYORDER=
